<?xml version="1.0" encoding="utf-8"?>
<!-- Generator: Adobe Illustrator 23.0.0, SVG Export Plug-In . SVG Version: 6.00 Build 0)  -->
<!DOCTYPE svg PUBLIC "-//W3C//DTD SVG 1.1 Tiny//EN" "http://www.w3.org/Graphics/SVG/1.1/DTD/svg11-tiny.dtd" [
	<!ENTITY ns_extend "http://ns.adobe.com/Extensibility/1.0/">
	<!ENTITY ns_ai "http://ns.adobe.com/AdobeIllustrator/10.0/">
	<!ENTITY ns_graphs "http://ns.adobe.com/Graphs/1.0/">
	<!ENTITY ns_vars "http://ns.adobe.com/Variables/1.0/">
	<!ENTITY ns_imrep "http://ns.adobe.com/ImageReplacement/1.0/">
	<!ENTITY ns_sfw "http://ns.adobe.com/SaveForWeb/1.0/">
	<!ENTITY ns_custom "http://ns.adobe.com/GenericCustomNamespace/1.0/">
	<!ENTITY ns_adobe_xpath "http://ns.adobe.com/XPath/1.0/">
]>
<svg version="1.1" baseProfile="tiny" id="Layer_1" xmlns:x="&ns_extend;" xmlns:i="&ns_ai;" xmlns:graph="&ns_graphs;"
	 xmlns="http://www.w3.org/2000/svg" xmlns:xlink="http://www.w3.org/1999/xlink" x="0px" y="0px" viewBox="0 0 300 68"
	 xml:space="preserve">
<metadata>
	<sfw  xmlns="&ns_sfw;">
		<slices></slices>
		<sliceSourceBounds  bottomLeftOrigin="true" height="318.11" width="1873.86" x="-1223.86" y="-433.09"></sliceSourceBounds>
		<optimizationSettings>
			<targetSettings  fileFormat="PNG24Format" targetSettingsID="0">
				<PNG24Format  filtered="false" interlaced="false" matteColor="#FFFFFF" noMatteColor="false" transparency="true">
					</PNG24Format>
			</targetSettings>
		</optimizationSettings>
	</sfw>
</metadata>
<g>
	<path fill="#4183A0" d="M156.33,48.75c0-4.33-0.07-8.67,0.01-13c0.17-9.12,8-16.8,17.13-17.16c5.49-0.21,10.2,1.36,14.06,5.24
		c1.23,1.24,1.96,1.04,3.14-0.08c10.43-9.86,26.87-5.26,30.62,8.57c0.45,1.66,0.51,3.45,0.52,5.19c0.05,8.06,0.03,16.12,0.02,24.17
		c0,0.61-0.01,1.22-0.12,1.82c-0.32,1.84-1.35,3.05-3.26,3.29c-1.98,0.24-3.43-0.64-4.15-2.46c-0.35-0.89-0.43-1.92-0.43-2.89
		c-0.03-8.06,0-16.12-0.03-24.17c-0.02-6.16-4.38-10.7-10.29-10.76c-5.82-0.06-10.52,4.51-10.59,10.56
		c-0.1,8.51-0.01,17.03-0.05,25.54c-0.01,2.61-1.48,4.14-3.81,4.17c-2.37,0.03-3.93-1.63-4.02-4.27c-0.02-0.68-0.01-1.37-0.01-2.05
		c0-7.75,0.05-15.51-0.03-23.26c-0.06-5.69-3.97-10.06-9.3-10.64c-6.04-0.65-11.49,4.06-11.55,10.19c-0.09,8.36,0,16.72-0.07,25.08
		c-0.01,1.08-0.27,2.29-0.8,3.22c-0.86,1.52-2.34,2.14-4.1,1.67c-1.81-0.48-2.91-1.64-2.92-3.58
		C156.31,58.33,156.32,53.54,156.33,48.75C156.33,48.75,156.33,48.75,156.33,48.75z"/>
	<path fill="#4183A0" d="M59.56,67.08C46.99,67.09,36.39,56.3,36.4,43.49c0.02-12.83,10.13-23.78,23.78-23.76
		c14.27,0.03,23.66,11.86,23.69,23.66C83.9,56.59,73.12,67.07,59.56,67.08z M44.19,43.35c-0.65,8.48,7.41,16.06,15.93,16.08
		c8.33,0.02,16.17-7.26,16.02-15.84c-0.17-9.27-6.98-16.17-16.37-16.2C51.17,27.37,44.2,34.51,44.19,43.35z"/>
	<path fill="#4183A0" d="M95.12,43.45c-0.64-11.76,9.31-23.62,23.39-23.74c14.39-0.12,24.09,12.27,23.85,23.91
		c-0.27,13.21-10.75,23.42-24.5,23.46C106.39,67.13,94.54,56.63,95.12,43.45z M118.62,59.29c7.17,0.7,15.93-5.44,16.17-15.83
		c0.21-8.9-7.24-16.05-16.56-16.06c-8.5-0.01-15.53,7.26-15.64,15.98C102.48,52.16,110.13,59.87,118.62,59.29z"/>
	<path fill="#4183A0" d="M279.86,48.42c-2.59,3.22-4.63,5.75-6.66,8.28c-2.09,2.61-4.11,5.27-6.28,7.82
		c-0.71,0.83-1.7,1.79-2.67,1.93c-1.11,0.15-2.73-0.22-3.39-0.99c-0.66-0.77-0.91-2.58-0.45-3.47c1.06-2.06,2.62-3.88,4.06-5.73
		c2.86-3.65,5.7-7.31,8.7-10.84c1.24-1.45,1.26-2.44,0.01-3.86c-3.81-4.33-7.51-8.77-11.24-13.18c-0.73-0.87-1.49-1.74-2.1-2.69
		c-1.03-1.61-1.32-3.28,0.26-4.74c1.4-1.29,3.67-1.23,5.15,0.37c2.47,2.68,4.76,5.52,7.12,8.3c2.45,2.88,4.89,5.76,7.52,8.85
		c0.74-0.85,1.3-1.43,1.79-2.07c3.63-4.78,7.23-9.58,10.87-14.35c1.59-2.09,3.51-2.52,5.3-1.28c1.63,1.12,2.01,3.47,0.52,5.5
		c-3.78,5.14-7.63,10.23-11.64,15.19c-1.47,1.81-1.57,2.99,0.04,4.8c3.84,4.31,7.43,8.83,11.13,13.27c0.19,0.23,0.39,0.46,0.58,0.7
		c1.94,2.44,2,4.38,0.18,5.79c-1.64,1.27-4.05,0.71-5.76-1.33c-3.91-4.66-7.82-9.3-11.71-13.98
		C280.74,50.12,280.44,49.4,279.86,48.42z"/>
	<path fill="#4183A0" d="M0,53.1c0.42-4.98,0.42-10.03,1.34-14.91c1.78-9.41,10.93-17.67,20.43-19.06c1.49-0.22,3.02-0.45,4.51-0.39
		c2.16,0.08,3.66,1.6,3.77,3.55c0.12,2.18-1.02,3.44-3.06,3.88c-1.4,0.3-2.85,0.38-4.25,0.67c-8.76,1.8-14.56,8.88-14.59,17.8
		c-0.02,5.7,0.01,11.39-0.01,17.09c-0.01,3.1-1.46,4.91-3.85,4.91c-2.44-0.01-3.9-1.78-3.92-4.84c-0.02-2.89-0.01-5.77-0.01-8.66
		C0.25,53.12,0.12,53.11,0,53.1z"/>
	<path fill="#4183A0" d="M246.3,43.58c0,6.07,0.01,12.15,0,18.22c-0.01,3.14-1.35,4.8-3.86,4.84c-2.7,0.04-4.34-1.56-4.36-4.69
		c-0.06-12.37-0.06-24.75-0.01-37.12c0.01-3.07,1.7-4.77,4.35-4.76c2.46,0.01,3.87,1.74,3.87,4.85
		C246.31,31.13,246.3,37.36,246.3,43.58z"/>
	<path fill="#4183A0" d="M241.99,11.5c-2.99-0.02-4.99-2.15-4.96-5.28c0.03-2.85,2.37-5.28,5.12-5.31c2.89-0.03,5.57,2.7,5.47,5.56
		C247.54,9.31,245.06,11.52,241.99,11.5z"/>
</g>
</svg>
